Coordinates
version=1
nRows=38
nColumns=12
inDegrees=yes

Units are S.I. units (second, meters, Newtons, ...)
Angles are in degrees

endheader
time	SC_y	SC_z	SC_x	AC_y	AC_z	AC_x	GH_y	GH_z	GH_yy	EL_x	PS_y
       0.0              -52.98          2.245          36.26          58.16          5.566         -4.648          171.3          35.18           66.6          128.4           35.7
   0.01554              -52.98          2.248          36.26          58.16          5.563         -4.645          171.3          35.17          66.57          128.4          35.71
   0.03107              -52.97          2.252          36.26          58.16          5.559         -4.642          171.3          35.17          66.55          128.4          35.72
   0.04661              -52.97          2.256          36.27          58.16          5.556         -4.639          171.3          35.16          66.52          128.4          35.73
   0.06214              -52.97           2.26          36.27          58.16          5.552         -4.635          171.2          35.16          66.49          128.4          35.74
   0.07768              -52.97          2.264          36.27          58.16          5.547         -4.632          171.2          35.15          66.46          128.4          35.76
   0.09321              -52.97          2.268          36.27          58.17          5.543         -4.628          171.2          35.15          66.43          128.4          35.77
    0.1087              -52.97          2.273          36.28          58.17          5.538         -4.624          171.2          35.14          66.39          128.4          35.79
    0.1243              -52.97          2.278          36.28          58.17          5.533         -4.619          171.2          35.13          66.36          128.4          35.81
    0.1398              -52.97          2.284          36.29          58.17          5.527         -4.614          171.2          35.13          66.32          128.4          35.82
    0.1554              -52.96           2.29          36.29          58.17          5.521         -4.609          171.1          35.12          66.28          128.4          35.84
    0.1709              -52.96          2.296           36.3          58.17          5.514         -4.603          171.1          35.11          66.23          128.4          35.86
    0.1864              -52.96          2.303           36.3          58.18          5.507         -4.597          171.1           35.1          66.18          128.4          35.89
     0.202              -52.96           2.31          36.31          58.18            5.5         -4.591          171.1          35.09          66.13          128.3          35.91
    0.2175              -52.96          2.318          36.31          58.18          5.492         -4.584          171.0          35.08          66.07          128.3          35.94
     0.233              -52.96          2.327          36.32          58.18          5.483         -4.576          171.0          35.07          66.01          128.3          35.97
    0.2486              -52.95          2.337          36.33          58.19          5.473         -4.568          171.0          35.06          65.94          128.3           36.0
    0.2641              -52.95          2.347          36.33          58.19          5.463         -4.559          170.9          35.05          65.86          128.3          36.03
    0.2796              -52.95          2.358          36.34          58.19          5.451         -4.549          170.9          35.03          65.78          128.3          36.07
    0.2952              -52.95          2.371          36.35           58.2          5.439         -4.538          170.9          35.02          65.69          128.3          36.11
    0.3107              -52.94          2.384          36.36           58.2          5.425         -4.526          170.8           35.0          65.59          128.3          36.15
    0.3262              -52.94          2.399          36.37          58.21           5.41         -4.513          170.8          34.98          65.49          128.3           36.2
    0.3418              -52.93          2.416          36.39          58.21          5.393         -4.499          170.7          34.96          65.37          128.2          36.26
    0.3573              -52.93          2.434           36.4          58.22          5.374         -4.483          170.6          34.93          65.24          128.2          36.32
    0.3729              -52.92          2.454          36.42          58.22          5.353         -4.465          170.6          34.91          65.09          128.2          36.38
    0.3884              -52.92          2.477          36.43          58.23           5.33         -4.445          170.5          34.88          64.93          128.2          36.46
    0.4039              -52.91          2.502          36.45          58.24          5.305         -4.423          170.4          34.85          64.74          128.1          36.54
    0.4195              -52.91          2.531          36.47          58.25          5.275         -4.398          170.3          34.81          64.54          128.1          36.63
     0.435               -52.9          2.563           36.5          58.26          5.243         -4.369          170.2          34.77          64.31          128.1          36.74
    0.4505              -52.89            2.6          36.53          58.27          5.205         -4.337          170.1          34.72          64.04          128.0          36.86
    0.4661              -52.88          2.642          36.56          58.28          5.163         -4.301          169.9          34.67          63.74          128.0           37.0
    0.4816              -52.87           2.69           36.6           58.3          5.114         -4.259          169.7           34.6          63.39          128.0          37.16
    0.4971              -52.85          2.745          36.64          58.31          5.057          -4.21          169.5          34.53          62.99          127.9          37.34
    0.5127              -52.84           2.81          36.69          58.33          4.992         -4.154          169.3          34.45          62.53          127.8          37.55
    0.5282              -52.82          2.885          36.74          58.36          4.915         -4.088          169.1          34.35          61.99          127.8           37.8
    0.5437               -52.8          2.974          36.81          58.38          4.825          -4.01          168.7          34.24          61.35          127.7          38.09
    0.5593              -52.77           3.08          36.89          58.42          4.717         -3.917          168.4           34.1          60.59          127.6          38.44
    0.5748              -52.74          3.206          36.99          58.45          4.589         -3.806          167.9          33.94          59.68          127.4          38.85
